<svg width="108" height="32" viewBox="0 0 108 32" fill="none" xmlns="http://www.w3.org/2000/svg">
<g clip-path="url(#clip0_1_1382)">
<path d="M6.55704 14L0 14.0222V27.2028L2.206 27.1806L2.19492 22.0092H6.21893C7.47713 22.0092 8.49144 21.6489 9.22863 20.9395C9.97689 20.2245 10.3593 19.2379 10.3593 18.0074C10.3593 16.7824 10.0212 15.8014 9.35611 15.0864C8.6799 14.3658 7.73763 14 6.55704 14ZM8.13671 18.0351C8.13671 19.4319 7.46604 20.0526 5.95288 20.0526H2.206V15.9566H6.18013C7.53255 15.9566 8.13671 16.5995 8.13671 18.0351Z" fill="#1090CF"/>
<path d="M15.7058 18C14.1871 18 12.9898 18.4767 12.1473 19.4134C11.3824 20.2448 11 21.3755 11 22.7723C11 24.1524 11.3935 25.2942 12.1806 26.1755C12.6185 26.6466 13.1395 26.9958 13.7215 27.2175C14.2868 27.4282 14.9575 27.539 15.7058 27.539C17.2965 27.539 18.5326 27.0734 19.3861 26.1533C20.1455 25.333 20.5335 24.1912 20.5335 22.7723C20.5335 21.3367 20.1455 20.1949 19.375 19.3746C18.5381 18.4656 17.3021 18 15.7058 18ZM13.0397 22.7723C13.0397 22.2901 13.1062 21.8633 13.2282 21.4975C13.3501 21.1427 13.5219 20.8434 13.7436 20.5995C14.2148 20.0951 14.8577 19.8457 15.7058 19.8457C17.6069 19.8457 18.4938 20.7769 18.4938 22.7723C18.4938 23.26 18.4383 23.6924 18.3275 24.0526C18.2222 24.3963 18.067 24.6734 17.8453 24.9173C17.3908 25.4439 16.6924 25.6988 15.7058 25.6988C14.83 25.6988 14.1871 25.455 13.7326 24.9395C13.267 24.4074 13.0397 23.6979 13.0397 22.7723Z" fill="#1090CF"/>
<path d="M29.2887 22.3178C28.8342 22.085 28.0637 21.9076 26.9441 21.7857C25.5196 21.6083 24.982 21.4864 24.788 21.4199C24.3224 21.2425 24.2614 21.0208 24.2614 20.8268C24.2614 20.4721 24.3834 20.2393 24.6494 20.0785C24.8822 19.94 25.3533 19.7737 26.2901 19.7737C28.0693 19.7737 28.2965 20.5109 28.2965 21.1594V21.4697H30.364V21.1594C30.364 19.7182 29.66 18 26.3233 18C25.7025 18 25.1483 18.0499 24.666 18.1497C24.1672 18.2494 23.7404 18.3991 23.3691 18.6097C22.6208 19.103 22.2383 19.8568 22.2383 20.849C22.2383 21.8744 22.6873 22.6282 23.5409 23.0328C23.7737 23.1381 24.2836 23.3099 26.0628 23.5704C27.6924 23.8088 27.9917 23.8808 28.0416 23.8975C28.4296 24.0527 28.5958 24.2854 28.5958 24.679C28.5958 24.9672 28.5958 25.7321 26.5007 25.7321C25.2868 25.7321 24.7603 25.4993 24.5053 25.2831C24.2781 25.1113 24.1561 24.8397 24.1173 24.4794H22C22.0554 24.9395 22.1552 25.3441 22.3048 25.6711C22.4822 26.0702 22.7316 26.3972 23.0309 26.6356C23.4134 26.946 23.9012 27.1732 24.4887 27.3062C25.0374 27.4282 25.7136 27.4947 26.5007 27.4947C29.9538 27.4947 30.6799 25.8873 30.6799 24.5404C30.6799 23.5095 30.1921 22.739 29.2887 22.3178Z" fill="#1090CF"/>
<path d="M76.2831 22.3178C75.8342 22.085 75.0637 21.9076 73.9386 21.7857C72.5141 21.6083 71.9764 21.4864 71.7824 21.4199C71.3224 21.2425 71.2559 21.0208 71.2559 20.8268C71.2559 20.4721 71.3778 20.2393 71.6439 20.0785C71.8767 19.94 72.3478 19.7737 73.2845 19.7737C75.0693 19.7737 75.2965 20.5109 75.2965 21.1594V21.4697H77.3584V21.1594C77.3584 19.7182 76.66 18 73.3178 18C72.7025 18 72.1427 18.0499 71.6605 18.1497C71.1617 18.2494 70.7404 18.3991 70.3635 18.6097C69.6152 19.103 69.2383 19.8568 69.2383 20.849C69.2383 21.8744 69.6873 22.6282 70.5409 23.0328C70.7681 23.1381 71.2836 23.3099 73.0573 23.5704C74.6924 23.8088 74.9861 23.8808 75.036 23.8975C75.424 24.0527 75.5903 24.2854 75.5903 24.679C75.5903 24.9672 75.5903 25.7321 73.4951 25.7321C72.2868 25.7321 71.7547 25.4993 71.5053 25.2831C71.2781 25.1113 71.1561 24.8397 71.1173 24.4794H69C69.0554 24.9395 69.1552 25.3441 69.2993 25.6711C69.4822 26.0702 69.7261 26.3972 70.0309 26.6356C70.4078 26.946 70.9012 27.1732 71.4887 27.3062C72.0374 27.4282 72.7136 27.4947 73.4951 27.4947C76.9538 27.4947 77.6799 25.8873 77.6799 24.5404C77.6799 23.5095 77.1921 22.739 76.2831 22.3178Z" fill="#1090CF"/>
<path d="M48.5824 18.8813C48.4827 18.7815 48.4051 18.7206 48.3441 18.6762C47.6623 18.2273 46.7866 18 45.739 18C44.2092 18 43.0175 18.4379 42.1917 19.2915C41.3991 20.0841 41 21.2259 41 22.6725C41 23.3875 41.0998 24.0305 41.2938 24.5958C41.4878 25.1723 41.7871 25.6767 42.1806 26.0979C43.012 26.9238 44.1815 27.345 45.6559 27.345C46.8587 27.345 47.8397 27.0679 48.588 26.5192V26.7187C48.5769 28.3704 48.3884 28.6531 47.9894 29.0744C47.6014 29.479 46.9085 29.6841 45.933 29.6841C44.7635 29.6841 44.2259 29.4568 43.982 29.2628C43.7492 29.0799 43.5718 28.6974 43.4665 28.1598L43.3889 27.7441L41.3658 27.7663L41.3769 28.3316C41.4046 28.5478 41.4434 28.7584 41.4933 28.958C41.6873 29.6951 42.0365 30.2716 42.5409 30.6596C43.2503 31.2194 44.37 31.491 45.9663 31.491C49.8462 31.491 50.6554 29.1797 50.6554 27.2397V18.2605H48.588L48.5824 18.8813ZM47.0693 25.2942C46.7589 25.4217 46.382 25.4827 45.9663 25.4827C43.9875 25.4827 43.1062 24.618 43.1062 22.6725C43.1062 21.7746 43.339 21.1039 43.8212 20.6162C44.2979 20.1339 44.9741 19.8956 45.8831 19.8956C46.7977 19.8956 47.4573 20.1339 47.9062 20.6162C48.3607 21.115 48.588 21.769 48.588 22.6282C48.588 23.5593 48.3552 24.2744 47.9007 24.7455C47.6568 24.9838 47.3797 25.1723 47.0693 25.2942Z" fill="#1090CF"/>
<path d="M54.1339 18.521C54.0951 18.5487 54.0619 18.5709 54.0342 18.5986V18.2661H52L52.0111 27.2397H54.0342V22.8443C54.0342 20.2559 55.2148 19.9566 56.1072 19.9566C56.3455 19.9566 57.4707 19.9677 57.4707 19.9677V18H56.2845C55.3533 18 54.655 18.1663 54.1339 18.521Z" fill="#1090CF"/>
<path d="M65.0559 24.5016C64.6623 25.3219 63.9418 25.7099 62.8277 25.7099C61.8799 25.7099 61.176 25.4383 60.6882 24.873C60.3501 24.4905 60.1506 24.0249 60.0841 23.4596H67.4891V22.9663C67.4891 21.4975 67.1178 20.3113 66.375 19.4522C65.9593 18.9589 65.4383 18.5875 64.8231 18.3492C64.2245 18.1164 63.5316 18 62.7501 18C61.2702 18 60.0951 18.4268 59.2582 19.2693C58.4212 20.1118 58 21.2536 58 22.6725C58 24.0859 58.4046 25.2388 59.2028 26.0813C60.0674 27.0346 61.2924 27.5169 62.8388 27.5169C63.4485 27.5169 64.0249 27.4282 64.5515 27.2563C65.0836 27.0845 65.5547 26.8351 65.9704 26.5025C66.6134 25.9538 67.0402 25.2831 67.2619 24.5016H65.0559ZM60.7935 20.4776C61.043 20.2337 61.3256 20.0508 61.6416 19.9344C61.963 19.8125 62.3344 19.7515 62.7501 19.7515C63.5483 19.7515 64.1746 20.0009 64.6679 20.5164C65.0393 20.8988 65.272 21.309 65.3663 21.7524H60.1561C60.2947 21.2148 60.5109 20.788 60.7935 20.4776Z" fill="#1090CF"/>
<path d="M39.5405 26.9609V26.4731H37.5396V26.972C37.5396 26.972 37.5396 27.2436 37.5396 27.3323C37.534 27.4653 37.462 27.9808 37.4343 28.0972C37.3733 28.3189 37.3012 28.5738 37.2624 28.7124C37.2292 28.7955 37.1959 28.8787 37.1571 28.9563C36.7969 29.6547 36.0098 29.9817 35.2393 29.8487C34.1086 29.6491 33.2883 28.5849 33.4435 27.4376C33.5211 26.8611 33.6541 26.2902 33.9202 25.7748C34.419 24.7992 35.0343 23.8791 35.6495 22.9812C35.7714 22.8094 36.2038 22.1664 36.7193 21.1688C37.2458 21.4071 37.7059 21.5401 38.0162 21.6122C38.5816 21.7452 38.9253 21.7785 39.1913 21.7119C39.2246 21.7064 39.474 21.6676 39.535 21.5678C39.5571 21.5346 39.4962 21.4625 39.4296 21.4459C38.5871 21.2242 37.7724 20.947 37.135 20.3041C37.6781 19.1124 38.2324 17.5882 38.5539 15.8477C38.7867 14.5674 39.0694 13.2926 39.1248 11.9678C39.1913 10.8759 39.147 9.65099 38.9973 8.62558C38.6758 6.45284 37.728 4.91196 36.2592 3.33229C34.347 1.2704 31.6643 0.322593 28.904 0.0565425C25.9775 -0.226136 24.2759 0.588644 22.9789 1.66393C21.4324 2.93876 21.1276 4.13044 21.0167 5.83205C20.9281 7.19556 21.1886 7.97154 21.8759 9.37939C22.3747 10.3993 24.4532 12.1618 25.0352 13.1374C25.5895 14.0741 25.4398 14.1905 25.8444 15.2103C26.044 15.7147 27.0583 16.5683 27.995 16.4353C28.9207 16.3078 29.6578 15.6482 30.1622 14.3457C30.3507 13.8745 30.3618 13.42 30.4116 13.0154C30.5558 11.929 30.5225 11.0422 30.6278 9.69533C30.6389 9.55122 30.6555 9.36831 30.589 9.29071C30.4061 9.069 30.1622 9.15769 30.0569 9.36831C29.9849 9.50688 29.9682 9.66762 29.9239 9.81727C29.5026 11.2417 28.6324 13.3147 28.5936 13.4367C28.4606 13.7748 28.1391 14.4454 27.9174 14.4233C27.801 14.4066 27.7123 14.4066 27.6514 14.1905C27.5849 13.9577 27.2855 12.8547 26.2823 11.6131C24.5086 9.41265 23.5331 8.35399 23.2061 6.9018C22.8458 5.3055 23.5719 3.60943 24.941 2.84453C25.6504 2.44545 27.147 1.8413 28.7488 2.01312C30.7165 2.22375 32.9003 2.92213 34.2583 4.41866C35.8768 6.19787 36.9132 7.20665 36.9687 10.4436C37.0019 12.3447 36.5862 14.5563 36.1206 16.3965C36.0652 16.5738 36.0042 16.7623 35.9377 16.9563C35.7714 17.4662 35.6163 17.9041 35.4666 18.2976C35.4223 18.2367 35.3447 18.1258 35.3225 18.0925C35.0731 17.7489 34.8569 17.4274 34.6075 17.1337C34.3082 16.7734 34.0089 16.3965 33.632 16.1304C33.1664 15.7923 32.662 15.7092 32.2518 16.1637C32.0467 16.3909 31.9082 16.718 32.0523 17.0838C32.4957 18.1868 33.3437 18.996 34.286 19.7554C34.3359 19.7942 34.5077 19.905 34.7017 20.038C34.3691 20.6921 33.9978 21.324 33.4989 22.1609C32.795 23.347 31.9858 24.7438 31.7253 25.3923C31.2264 26.6283 31.1765 27.9032 31.4814 29.2002C31.6144 29.7655 31.8971 30.2366 32.2906 30.6634C33.5488 32.0048 35.6939 32.3262 37.3234 31.6833C37.6948 31.5336 38.0661 31.2565 38.3211 30.9406C38.9973 30.1092 39.3853 29.1835 39.5017 28.1692C39.5128 28.0639 39.5239 27.7701 39.5294 27.5152C39.535 27.4653 39.535 27.4265 39.535 27.3988C39.5405 27.2879 39.5405 26.9609 39.5405 26.9609ZM36.2481 12.9544C36.2481 13.5253 35.7825 13.9909 35.2116 13.9909C34.6407 13.9909 34.1807 13.5253 34.1807 12.9544C34.1807 12.3835 34.6407 11.9235 35.2116 11.9235C35.7825 11.9235 36.2481 12.3835 36.2481 12.9544Z" fill="white"/>
<path d="M86.557 14L80 14.0222V27.2028L82.206 27.1806L82.1949 22.0092H86.2189C87.4771 22.0092 88.4914 21.6489 89.2286 20.9395C89.9769 20.2245 90.3593 19.2379 90.3593 18.0074C90.3593 16.7824 90.0212 15.8014 89.3561 15.0864C88.6799 14.3658 87.7376 14 86.557 14ZM88.1367 18.0351C88.1367 19.4319 87.466 20.0526 85.9529 20.0526H82.206V15.9566H86.1801C87.5326 15.9566 88.1367 16.5995 88.1367 18.0351Z" fill="#1090CF"/>
<path d="M102.706 18C101.187 18 99.9898 18.4767 99.1473 19.4134C98.3824 20.2448 98 21.3755 98 22.7723C98 24.1524 98.3935 25.2942 99.1806 26.1755C99.6185 26.6466 100.139 26.9958 100.721 27.2175C101.287 27.4282 101.958 27.539 102.706 27.539C104.297 27.539 105.533 27.0734 106.386 26.1533C107.145 25.333 107.533 24.1912 107.533 22.7723C107.533 21.3367 107.145 20.1949 106.375 19.3746C105.538 18.4656 104.302 18 102.706 18ZM100.04 22.7723C100.04 22.2901 100.106 21.8633 100.228 21.4975C100.35 21.1427 100.522 20.8434 100.744 20.5995C101.215 20.0951 101.858 19.8457 102.706 19.8457C104.607 19.8457 105.494 20.7769 105.494 22.7723C105.494 23.26 105.438 23.6924 105.327 24.0526C105.222 24.3963 105.067 24.6734 104.845 24.9173C104.391 25.4439 103.692 25.6988 102.706 25.6988C101.83 25.6988 101.187 25.455 100.733 24.9395C100.267 24.4074 100.04 23.6979 100.04 22.7723Z" fill="#1090CF"/>
<path d="M94.1339 18.521C94.1007 18.5487 94.0674 18.5709 94.0342 18.5986V18.2661H92L92.0111 27.2397H94.0342V22.8443C94.0342 20.2559 95.2148 19.9566 96.1072 19.9566C96.3455 19.9566 97.4707 19.9677 97.4707 19.9677V18H96.2845C95.3533 18 94.655 18.1663 94.1339 18.521Z" fill="#1090CF"/>
</g>
<defs>
<clipPath id="clip0_1_1382">
<rect width="108" height="32" fill="white"/>
</clipPath>
</defs>
</svg>
